<svg width="957" height="432" viewBox="0 0 957 432" fill="none" xmlns="http://www.w3.org/2000/svg">
<path d="M98.522 216.215C105.385 216.215 110.948 210.651 110.948 203.789C110.948 196.926 105.385 191.362 98.522 191.362C91.6593 191.362 86.0959 196.926 86.0959 203.789C86.0959 210.651 91.6593 216.215 98.522 216.215Z" fill="#333333"/>
<path d="M291.677 241.842C290.905 217.875 280.362 175.328 268.559 156.056C268.567 155.984 268.575 155.915 268.583 155.842C269.646 146.633 272.47 122.169 266.607 107.233C262.069 95.6718 256.496 84.6601 251.105 74.0081L249.788 71.3976C245.323 62.6448 241.573 53.2293 237.948 44.125C236.142 39.5829 232.78 31.1332 223.966 28.6439C211.399 25.0838 202.315 37.2108 198.443 42.3752C186.599 58.123 180.295 74.5173 175.693 86.4947C174.872 88.6243 172.67 89.9094 170.447 89.5578C164.05 88.5314 151.281 88.0626 146.1 87.994L145.999 96.0759L145.898 87.994C140.718 88.0626 127.948 88.5314 121.551 89.5578C119.345 89.9094 117.127 88.6284 116.302 86.4826C111.699 74.5173 105.396 58.123 93.5595 42.3833C89.6801 37.2108 80.5879 25.096 68.0245 28.6439C59.2151 31.1332 55.853 39.5829 54.0467 44.125C50.426 53.2293 46.6759 62.6448 42.1945 71.4259L40.8892 74.0081C35.4985 84.6601 29.926 95.6678 25.388 107.229C19.5205 122.169 22.3451 146.633 23.4079 155.842C23.416 155.907 23.42 155.967 23.4281 156.032C11.6931 175.073 1.09357 217.807 0.313659 241.842L0.228798 244.4C-0.603645 268.355 -1.39164 290.977 40.9741 342.762C77.5895 387.516 124.477 391.739 140.863 391.739C143.308 391.739 145.046 391.646 145.999 391.577C146.949 391.646 148.691 391.739 151.135 391.739C167.522 391.739 214.409 387.512 251.025 342.762C293.39 290.981 292.606 268.355 291.77 244.4L291.677 241.842ZM38.1818 162.974C40.1861 160.303 39.9234 158.061 39.4547 153.987C38.6061 146.653 36.0279 124.322 40.4205 113.137C44.6797 102.287 50.0784 91.6268 55.2994 81.3102L56.5965 78.7482C61.4053 69.3205 65.2928 59.5535 69.0549 50.1016C70.5258 46.4001 71.6573 44.4159 72.4089 44.2018C72.6029 44.1654 74.4941 43.9229 80.6243 52.0938C91.1106 66.0352 96.7074 80.5949 101.209 92.2976C104.753 101.519 114.383 107.1 124.101 105.516C128.777 104.768 139.962 104.243 145.991 104.162C152.02 104.243 163.206 104.768 167.881 105.516C177.608 107.08 187.234 101.515 190.778 92.2895C195.275 80.5909 200.872 66.0352 211.366 52.0857C217.501 43.9068 219.376 44.1169 219.574 44.2018C220.329 44.4159 221.457 46.4001 222.932 50.1016C226.694 59.5535 230.581 69.3205 235.378 78.7199L236.687 81.3102C241.908 91.6268 247.307 102.287 251.566 113.141C255.959 124.326 253.381 146.653 252.532 153.987C252.063 158.061 251.801 160.303 253.68 162.801C263.115 176.096 274.753 218.482 275.525 242.364L275.594 244.348C269.241 234.662 260.109 226.802 249.004 222.009C244.672 220.138 241.969 215.507 242.579 210.99C242.939 208.327 243.096 205.603 243.056 202.908C242.615 175.013 219.594 151.417 191.735 150.31C177.002 149.68 163.077 155.006 152.489 165.189C149.184 168.365 146.399 171.917 144.056 175.704C141.708 171.917 138.92 168.369 135.614 165.189C124.998 154.998 111.037 149.704 96.2912 150.314C68.4528 151.446 45.4515 175.049 45.0232 202.932C44.9827 205.639 45.1444 208.359 45.504 211.014C46.1183 215.56 43.3623 220.134 38.796 222.135C30.0796 225.949 22.5755 231.752 16.6756 238.864C18.3405 214.546 29.3077 175.481 38.1818 162.974ZM121.976 323.208C127.625 322.783 133.028 321.337 137.925 319.85V329.879C137.925 334.341 141.546 337.961 146.007 337.961C150.469 337.961 154.089 334.341 154.089 329.879V319.85C158.987 321.337 164.39 322.783 170.039 323.208C170.609 327.265 170.601 331.278 169.922 335.343C169.073 340.426 167.76 345.631 165.917 351.252C164.463 355.693 163.141 357.524 159.969 361.937C158.446 363.896 150.485 367.061 146.016 367.061C145.979 367.061 145.943 367.061 145.906 367.061C141.534 367.061 133.573 363.901 132.054 361.945C128.874 357.524 127.56 355.697 126.098 351.252C124.255 345.631 122.946 340.426 122.093 335.343C121.41 331.274 121.406 327.265 121.976 323.208ZM145.951 383.216C145.979 383.216 146.003 383.216 146.032 383.216L145.991 383.637L145.951 383.216ZM238.506 332.526C216.276 359.694 189.901 369.845 171.13 373.546C171.846 372.851 172.533 372.14 173.078 371.38C176.533 366.58 179.034 363.104 181.269 356.287C183.37 349.886 184.87 343.91 185.856 338.014C186.834 332.187 186.838 326.457 185.993 320.682C186.385 320.508 186.777 320.383 187.169 320.185C195.752 315.89 202.505 307.395 206.707 295.62C210.057 286.221 212.967 275.714 215.125 265.232C216.026 260.859 213.209 256.584 208.837 255.687C204.452 254.774 200.189 257.606 199.292 261.975C197.284 271.734 194.584 281.489 191.481 290.189C189.545 295.612 185.973 302.708 179.936 305.73C173.563 308.915 165.998 306.607 157.237 303.928C156.199 303.609 155.144 303.29 154.085 302.975V297.406C162.778 294.488 169.049 286.293 169.049 276.615C169.049 267.858 161.949 260.758 153.192 260.758H138.823C130.066 260.758 122.966 267.858 122.966 276.615C122.966 286.289 129.233 294.484 137.925 297.406V302.975C136.863 303.29 135.812 303.609 134.774 303.928C126.013 306.607 118.452 308.919 112.075 305.726C106.034 302.708 102.466 295.612 100.53 290.189C97.4267 281.489 94.7273 271.734 92.7189 261.975C91.8178 257.606 87.5546 254.774 83.1741 255.687C78.8018 256.588 75.9892 260.859 76.8863 265.232C79.0442 275.714 81.9537 286.217 85.3037 295.62C89.5063 307.395 96.2589 315.894 104.838 320.185C105.23 320.379 105.622 320.504 106.014 320.682C105.169 326.457 105.177 332.187 106.151 338.014C107.141 343.91 108.64 349.886 110.738 356.291C112.98 363.113 115.474 366.58 118.929 371.38C119.442 372.092 120.097 372.75 120.755 373.409C101.932 369.635 75.5003 359.447 53.4769 332.526C32.0637 306.353 22.7694 288.94 18.8537 274.894C19.8155 258.406 30.0634 243.596 45.2656 236.945C56.4066 232.067 63.0904 220.514 61.5104 208.848C61.2558 206.989 61.1467 205.082 61.175 203.182C61.474 183.733 77.5167 167.262 96.9377 166.47C107.266 166.11 116.997 169.739 124.408 176.855C131.811 183.963 135.889 193.524 135.889 203.776C135.889 208.238 139.51 211.858 143.971 211.858C143.999 211.858 144.023 211.85 144.052 211.85C144.08 211.85 144.104 211.858 144.132 211.858C148.594 211.858 152.214 208.238 152.214 203.776C152.214 193.516 156.288 183.951 163.679 176.847C171.07 169.747 180.817 166.074 191.085 166.466C210.518 167.238 226.581 183.705 226.888 203.17C226.916 205.065 226.803 206.969 226.552 208.836C224.968 220.571 231.563 232.092 242.591 236.852C258.828 243.859 269.318 259.829 269.318 277.524C269.318 281.509 268.781 285.364 267.766 289.005C262.323 300.51 253.32 314.419 238.506 332.526Z" fill="#333333"/>
<path d="M193.489 216.215C200.352 216.215 205.915 210.651 205.915 203.789C205.915 196.926 200.352 191.362 193.489 191.362C186.626 191.362 181.063 196.926 181.063 203.789C181.063 210.651 186.626 216.215 193.489 216.215Z" fill="#333333"/>
<path d="M203.822 111.153C211.536 115.865 225.978 124.811 231.325 128.957C233.511 130.651 236.703 129.038 236.622 126.27C236.376 118.018 235.406 110.203 231.543 102.343C228.593 96.3426 224.471 90.8913 222.321 84.5591C221.675 82.6477 221.182 80.6191 219.937 79.0351C218.001 76.5701 214.458 76.4044 212.558 78.9825L201.328 102.76C199.898 105.794 200.961 109.407 203.822 111.153Z" fill="#333333"/>
<path d="M60.6578 128.957C66.004 124.811 80.4465 115.869 88.1608 111.153C91.0218 109.403 92.0846 105.794 90.654 102.76L79.4241 78.9825C77.5249 76.4044 73.985 76.5701 72.0453 79.0351C70.8007 80.6232 70.3077 82.6518 69.6611 84.5591C67.5113 90.8913 63.3935 96.3426 60.4396 102.343C56.5764 110.203 55.6066 118.018 55.3601 126.27C55.2752 129.034 58.4676 130.651 60.6578 128.957Z" fill="#333333"/>
<path d="M661.581 251.92V321.207C661.581 333.414 657.895 343.009 650.521 349.991C643.148 356.974 633.017 360.465 620.126 360.465C607.235 360.465 597.25 356.949 590.17 349.918C583.139 342.887 579.623 333.219 579.623 320.914V251.92H592.074V321.793C592.074 330.729 594.516 337.589 599.398 342.374C604.281 347.159 611.459 349.552 620.932 349.552C629.965 349.552 636.923 347.159 641.806 342.374C646.688 337.54 649.13 330.631 649.13 321.646V251.92H661.581ZM750.424 330.509C750.424 339.933 747.006 347.281 740.17 352.555C733.334 357.828 724.057 360.465 712.338 360.465C699.643 360.465 689.877 358.829 683.041 355.558V343.546C687.436 345.401 692.221 346.866 697.396 347.94C702.572 349.015 707.699 349.552 712.777 349.552C721.078 349.552 727.328 347.989 731.527 344.864C735.727 341.69 737.826 337.296 737.826 331.681C737.826 327.97 737.069 324.942 735.556 322.599C734.091 320.206 731.601 318.009 728.085 316.007C724.618 314.005 719.32 311.734 712.191 309.195C702.23 305.631 695.102 301.407 690.805 296.524C686.557 291.642 684.433 285.27 684.433 277.408C684.433 269.156 687.533 262.589 693.734 257.706C699.936 252.823 708.139 250.382 718.344 250.382C728.988 250.382 738.778 252.335 747.714 256.241L743.832 267.081C734.994 263.37 726.4 261.515 718.051 261.515C711.459 261.515 706.308 262.931 702.597 265.763C698.886 268.595 697.03 272.525 697.03 277.555C697.03 281.266 697.714 284.317 699.081 286.71C700.448 289.054 702.743 291.227 705.966 293.229C709.237 295.182 714.218 297.354 720.907 299.747C732.138 303.751 739.853 308.048 744.052 312.638C748.3 317.228 750.424 323.185 750.424 330.509ZM849.667 359H835.019L795.98 307.071L784.774 317.032V359H772.323V251.92H784.774V305.021L833.334 251.92H848.056L804.989 298.429L849.667 359ZM891.708 305.46L920.272 251.92H933.749L898.007 317.472V359H885.409V318.058L849.74 251.92H863.363L891.708 305.46Z" fill="#333333"/>
<path d="M657.031 216L643.701 181.942H600.781L587.598 216H575L617.334 108.48H627.808L669.922 216H657.031ZM639.819 170.736L627.368 137.558C625.757 133.358 624.097 128.207 622.388 122.104C621.313 126.791 619.775 131.942 617.773 137.558L605.176 170.736H639.819ZM752.539 140.121C752.539 150.961 748.828 159.311 741.406 165.17C734.033 170.98 723.462 173.886 709.692 173.886H697.095V216H684.644V108.92H712.402C739.16 108.92 752.539 119.32 752.539 140.121ZM697.095 163.192H708.301C719.336 163.192 727.319 161.41 732.251 157.846C737.183 154.281 739.648 148.568 739.648 140.707C739.648 133.627 737.329 128.354 732.69 124.887C728.052 121.42 720.825 119.687 711.011 119.687H697.095V163.192ZM842.92 140.121C842.92 150.961 839.209 159.311 831.787 165.17C824.414 170.98 813.843 173.886 800.073 173.886H787.476V216H775.024V108.92H802.783C829.541 108.92 842.92 119.32 842.92 140.121ZM787.476 163.192H798.682C809.717 163.192 817.7 161.41 822.632 157.846C827.563 154.281 830.029 148.568 830.029 140.707C830.029 133.627 827.71 128.354 823.071 124.887C818.433 121.42 811.206 119.687 801.392 119.687H787.476V163.192ZM892.651 162.46L921.216 108.92H934.692L898.95 174.472V216H886.353V175.058L850.684 108.92H864.307L892.651 162.46Z" fill="#333333"/>
<path d="M538.68 371H514.461V234.672H351.961V371H327.938V86.625H351.961V214.359H514.461V86.625H538.68V371Z" fill="#333333"/>
</svg>
